<?xml version="1.0" encoding="UTF-8"?>
<svg xmlns="http://www.w3.org/2000/svg" xmlns:xlink="http://www.w3.org/1999/xlink" width="48pt" height="48pt" viewBox="0 0 48 48" version="1.1">
<g id="surface1">
<path style=" stroke:none;fill-rule:nonzero;fill:#000000;fill-opacity:1;" d="M 24 4 C 12.953125 4 4 12.953125 4 24 C 4 35.046875 12.953125 44 24 44 C 35.046875 44 44 35.046875 44 24 C 44 12.953125 35.046875 4 24 4 Z M 32 26 L 26 26 L 26 32 C 26 33.101563 25.101563 34 24 34 C 22.898438 34 22 33.101563 22 32 L 22 26 L 16 26 C 14.898438 26 14 25.101563 14 24 C 14 22.898438 14.898438 22 16 22 L 22 22 L 22 16 C 22 14.898438 22.898438 14 24 14 C 25.101563 14 26 14.898438 26 16 L 26 22 L 32 22 C 33.101563 22 34 22.898438 34 24 C 34 25.101563 33.101563 26 32 26 Z "/>
</g>
</svg>
